<svg fill="#FD7E14" xmlns="http://www.w3.org/2000/svg"  viewBox="0 0 50 50" width="100px" height="100px"><path d="M49,25.022c0,12.156-10.767,22.045-24,22.045c-2.014,0-4.019-0.23-5.96-0.685c-0.378-0.089-0.773-0.02-1.097,0.183	c-2.568,1.607-5.526,2.457-8.555,2.457H9.365c-0.691,0-1.386-0.044-2.062-0.131c-0.352-0.045-0.653-0.273-0.792-0.6	c-0.139-0.327-0.095-0.702,0.116-0.987c0.901-1.218,1.558-2.635,1.896-4.099c0.253-1.056-0.209-2.268-1.265-3.333	C3.224,35.807,1,30.533,1,25.022C1,12.867,11.767,2.978,25,2.978S49,12.867,49,25.022z M33.6,28.11l-6.47-3.06l6.48-3.06	c0.11-0.05,0.21-0.11,0.3-0.18c0.37-0.28,0.61-0.68,0.68-1.14c0.07-0.46-0.05-0.92-0.32-1.29c-0.58-0.77-1.67-0.94-2.44-0.36	l-5.78,4.28l0.64-7.32c0.01-0.1,0.01-0.21,0-0.31c-0.08-0.93-0.9-1.63-1.84-1.54c-0.94,0.09-1.63,0.91-1.54,1.85l0.64,7.32	l-5.78-4.28c-0.1-0.07-0.2-0.13-0.3-0.18c-0.43-0.2-0.9-0.22-1.34-0.07c-0.43,0.16-0.78,0.48-0.98,0.9c-0.2,0.42-0.22,0.9-0.06,1.33	c0.16,0.44,0.48,0.79,0.9,0.99l6.52,3.06l-6.51,3.07c-0.1,0.04-0.18,0.09-0.27,0.15c-0.78,0.56-0.95,1.65-0.39,2.43	c0.27,0.38,0.67,0.63,1.13,0.7c0.45,0.08,0.92-0.03,1.29-0.3l5.79-4.19l-0.64,7.19c-0.01,0.09-0.01,0.17,0,0.26	c0.04,0.45,0.25,0.86,0.59,1.16c0.34,0.29,0.78,0.44,1.23,0.4c0.45-0.04,0.87-0.25,1.16-0.59c0.29-0.35,0.43-0.78,0.4-1.23	l-0.64-7.19l5.79,4.19c0.06,0.04,0.12,0.08,0.18,0.12c0.85,0.46,1.91,0.15,2.37-0.69c0.23-0.43,0.28-0.92,0.13-1.38	C34.37,28.69,34.04,28.32,33.6,28.11z"/></svg>